<svg height="682pt" viewBox="-50 -21 682 682.66513" width="682pt" xmlns="http://www.w3.org/2000/svg"><path d="m577.980469 343.15625c-60.90625-31.847656-135.730469-40.011719-203.039063-26.289062 66.398438-38.328126 119.0625-104.691407 136.875-182.605469 1.019532-4.464844-3.007812-8.496094-7.476562-7.480469-72.8125 16.628906-136.496094 64.019531-176.113282 126.167969 18.683594-81.421875 9.269532-174.285157-32.851562-249.722657-2.402344-4.300781-8.582031-4.300781-10.988281 0-42.050781 75.289063-51.589844 168.128907-32.863281 249.726563-39.617188-62.148437-103.296876-109.523437-176.101563-126.167969-4.464844-1.019531-8.496094 3.011719-7.476563 7.476563 17.796876 77.9375 70.484376 144.277343 136.804688 182.582031-67.054688-13.660156-141.898438-5.644531-202.972656 26.3125-4.480469 2.34375-4.480469 8.785156 0 11.128906 60.511718 31.644532 134.914062 39.976563 202.164062 26.464844-43.867187 29.511719-75.527344 76.261719-84.738281 131.378906-.714844 4.285156 2.980469 7.980469 7.265625 7.265625 64.207031-10.75 117.234375-52.039062 144.585938-107.574219v209.355469c0 10.394531 8.429687 18.824219 18.824218 18.824219 10.394532 0 18.824219-8.429688 18.824219-18.824219v-209.328125c27.34375 55.507813 80.351563 96.8125 144.582031 107.550782 4.289063.71875 7.984375-2.980469 7.265625-7.265626-9.238281-55.207031-40.960937-101.914062-84.746093-131.371093 67.214843 13.503906 141.636718 5.203125 202.175781-26.476563 4.484375-2.34375 4.480469-8.785156 0-11.128906zm0 0"/></svg>