<svg height="512pt" viewBox="0 -94 512.00007 512" width="512pt" xmlns="http://www.w3.org/2000/svg"><path d="m510.476562 302.621094-67.230468-138.265625c-2.53125-5.203125-7.808594-8.507813-13.597656-8.507813-5.785157 0-11.0625 3.304688-13.59375 8.507813l-15.480469 31.835937 73.378906 128.15625h22.929687c5.207032 0 10.050782-2.679687 12.816407-7.097656 2.761719-4.414062 3.058593-9.945312.777343-14.628906zm0 0"/><path d="m285.976562 276.214844-22.160156 12.054687-9.109375 36.082031h62.539063l-9.109375-36.082031zm0 0"/><path d="m351.386719 171.113281-5.785157-72.945312c-.351562-4.460938-2.664062-8.535157-6.308593-11.125l-118.425781-84.242188c-4.625-3.292969-10.707032-3.714843-15.742188-1.09375-5.035156 2.621094-8.179688 7.839844-8.140625 13.519531l.570313 80.316407-71.488282 61.601562 81.492188 167.203125h15.964844l12.597656-49.894531c1.03125-4.089844 3.726562-7.5625 7.433594-9.578125l35.195312-19.152344c4.507812-2.449218 9.949219-2.449218 14.453125 0l35.195313 19.152344c3.707031 2.015625 6.398437 5.488281 7.433593 9.578125l12.597657 49.894531h90.121093zm0 0"/><path d="m172.515625 324.351562-76.570313-159.996093c-2.53125-5.203125-7.808593-8.507813-13.59375-8.507813-5.789062 0-11.066406 3.304688-13.597656 8.507813l-67.230468 138.265625c-2.28125 4.683594-1.984376 10.214844.777343 14.628906 2.765625 4.417969 7.605469 7.101562 12.816407 7.101562zm0 0"/></svg>